# xmcd CD database file
#
# Track frame offsets:
#	182
#	34895
#	91882
#	113295
#	186970
#	243810
#
# Disc length: 3844 seconds
#
# Revision: 1
# Processed by: cddbd v1.5.2PL0 Copyright (c) Steve Scherf et al.
# Submitted via: CDex 1.51
#
DISCID=3d0f0206
DTITLE=Albert Ayler - Live in Greenwich Village , 1
DYEAR=1994
DGENRE=Jazz
TTITLE0=Holy Ghost
TTITLE1=Truth is Marching In
TTITLE2=Our Prayer
TTITLE3=Spirits Rejoice
TTITLE4=Divine Peacemaker
TTITLE5=Angels
EXTD=YEAR: 1994
EXTT0=
EXTT1=
EXTT2=
EXTT3=
EXTT4=
EXTT5=
PLAYORDER=
